<?xml version="1.0" standalone="no"?>
<!DOCTYPE svg PUBLIC "-//W3C//DTD SVG 20010904//EN"
 "http://www.w3.org/TR/2001/REC-SVG-20010904/DTD/svg10.dtd">
<svg version="1.0" xmlns="http://www.w3.org/2000/svg"
 width="192.000000pt" height="192.000000pt" viewBox="0 0 192.000000 192.000000"
 preserveAspectRatio="xMidYMid meet">
<metadata>
Created by potrace 1.11, written by Peter Selinger 2001-2013
</metadata>
<g transform="translate(0.000000,192.000000) scale(0.100000,-0.100000)"
fill="#000000" stroke="none">
<path d="M184 1669 c-41 -12 -91 -69 -99 -111 -3 -18 -5 -263 -3 -545 3 -499
4 -512 24 -539 50 -68 53 -69 305 -72 l229 -3 0 -80 0 -79 320 0 320 0 0 79 0
80 228 3 229 3 37 29 c67 51 65 34 63 618 -2 515 -2 527 -23 554 -11 15 -33
37 -48 48 -27 21 -37 21 -789 23 -443 1 -775 -2 -793 -8z m1496 -629 l0 -480
-720 0 -720 0 0 480 0 480 720 0 720 0 0 -480z"/>
</g>
</svg>
